<svg width="20" height="20" viewBox="0 0 20 20" fill="none" xmlns="http://www.w3.org/2000/svg">
<g clip-path="url(#clip0_4_354)">
<path d="M0.909182 7.87893H1.81827V13.9395H3.63644V7.87893H6.66672V13.9395H8.48489V7.87893H11.5152V13.9395H13.3333V7.87893H16.3636V13.9395H18.1818V7.87893H19.0909C19.4914 7.87893 19.8449 7.61669 19.9609 7.2333C20.077 6.84991 19.9285 6.43567 19.5951 6.21342L10.5043 0.152857C10.1989 -0.0506572 9.80107 -0.0506572 9.49574 0.152857L0.404882 6.21342C0.0715507 6.43567 -0.0769939 6.84991 0.039066 7.2333C0.155187 7.61669 0.508639 7.87893 0.909182 7.87893Z" fill="#568CF9"/>
<path d="M19.091 15.7575H18.182H16.3638H13.3335H11.5153H8.48504H6.66687H3.63659H1.81841H0.909329C0.407272 15.7575 0.000244141 16.1646 0.000244141 16.6666V19.0909C0.000244141 19.5929 0.407272 19.9999 0.909329 19.9999H19.091C19.5931 19.9999 20.0001 19.5929 20.0001 19.0909V16.6666C20.0001 16.1646 19.5931 15.7575 19.091 15.7575Z" fill="#568CF9"/>
</g>
<defs>
<clipPath id="clip0_4_354">
<rect width="20" height="20" fill="white"/>
</clipPath>
</defs>
</svg>
