<svg width="117" height="50" viewBox="0 0 117 50" fill="none" xmlns="http://www.w3.org/2000/svg">
<path d="M48.6899 16.2266C48.6899 15.8779 48.6353 15.5703 48.5259 15.3037C48.4233 15.0303 48.2388 14.7842 47.9722 14.5654C47.7124 14.3467 47.3501 14.1382 46.8853 13.9399C46.4272 13.7417 45.8462 13.54 45.1421 13.335C44.4038 13.1162 43.7373 12.8735 43.1426 12.6069C42.5479 12.3335 42.0386 12.0225 41.6147 11.6738C41.1909 11.3252 40.8662 10.9253 40.6406 10.4741C40.415 10.0229 40.3022 9.50684 40.3022 8.92578C40.3022 8.34473 40.4219 7.80811 40.6611 7.31592C40.9004 6.82373 41.2422 6.39648 41.6865 6.03418C42.1377 5.66504 42.6743 5.37793 43.2964 5.17285C43.9185 4.96777 44.6123 4.86523 45.3779 4.86523C46.499 4.86523 47.4492 5.08057 48.2285 5.51123C49.0146 5.93506 49.6128 6.49219 50.0229 7.18262C50.4331 7.86621 50.6382 8.59766 50.6382 9.37695H48.6694C48.6694 8.81641 48.5498 8.3208 48.3105 7.89014C48.0713 7.45264 47.709 7.11084 47.2236 6.86475C46.7383 6.61182 46.123 6.48535 45.3779 6.48535C44.6738 6.48535 44.0928 6.59131 43.6348 6.80322C43.1768 7.01514 42.835 7.30225 42.6094 7.66455C42.3906 8.02686 42.2812 8.44043 42.2812 8.90527C42.2812 9.21973 42.3462 9.50684 42.4761 9.7666C42.6128 10.0195 42.8213 10.2554 43.1016 10.4741C43.3887 10.6929 43.751 10.8945 44.1885 11.0791C44.6328 11.2637 45.1626 11.4414 45.7778 11.6123C46.6255 11.8516 47.3569 12.1182 47.9722 12.4121C48.5874 12.7061 49.0933 13.0376 49.4897 13.4067C49.8931 13.769 50.1904 14.1826 50.3818 14.6475C50.5801 15.1055 50.6792 15.625 50.6792 16.2061C50.6792 16.8145 50.5562 17.3647 50.3101 17.8569C50.064 18.3491 49.7119 18.7695 49.2539 19.1182C48.7959 19.4668 48.2456 19.7368 47.603 19.9282C46.9673 20.1128 46.2563 20.2051 45.4702 20.2051C44.7798 20.2051 44.0996 20.1094 43.4297 19.918C42.7666 19.7266 42.1616 19.4395 41.6147 19.0566C41.0747 18.6738 40.6406 18.2021 40.3125 17.6416C39.9912 17.0742 39.8306 16.418 39.8306 15.6729H41.7993C41.7993 16.1855 41.8984 16.6265 42.0967 16.9956C42.2949 17.3579 42.5649 17.6587 42.9067 17.8979C43.2554 18.1372 43.6484 18.3149 44.0859 18.4312C44.5303 18.5405 44.9917 18.5952 45.4702 18.5952C46.1606 18.5952 46.7451 18.4995 47.2236 18.3081C47.7021 18.1167 48.0645 17.8433 48.3105 17.4878C48.5635 17.1323 48.6899 16.7119 48.6899 16.2266ZM52.4121 14.5757V14.3398C52.4121 13.54 52.5283 12.7983 52.7607 12.1147C52.9932 11.4243 53.3281 10.8262 53.7656 10.3203C54.2031 9.80762 54.7329 9.41113 55.355 9.13086C55.9771 8.84375 56.6743 8.7002 57.4468 8.7002C58.2261 8.7002 58.9268 8.84375 59.5488 9.13086C60.1777 9.41113 60.7109 9.80762 61.1484 10.3203C61.5928 10.8262 61.9312 11.4243 62.1636 12.1147C62.396 12.7983 62.5122 13.54 62.5122 14.3398V14.5757C62.5122 15.3755 62.396 16.1172 62.1636 16.8008C61.9312 17.4844 61.5928 18.0825 61.1484 18.5952C60.7109 19.1011 60.1812 19.4976 59.5591 19.7847C58.9438 20.0649 58.2466 20.2051 57.4673 20.2051C56.688 20.2051 55.9873 20.0649 55.3652 19.7847C54.7432 19.4976 54.21 19.1011 53.7656 18.5952C53.3281 18.0825 52.9932 17.4844 52.7607 16.8008C52.5283 16.1172 52.4121 15.3755 52.4121 14.5757ZM54.3091 14.3398V14.5757C54.3091 15.1294 54.374 15.6523 54.5039 16.1445C54.6338 16.6299 54.8286 17.0605 55.0884 17.4365C55.355 17.8125 55.6865 18.1099 56.083 18.3286C56.4795 18.5405 56.9409 18.6465 57.4673 18.6465C57.9868 18.6465 58.4414 18.5405 58.8311 18.3286C59.2275 18.1099 59.5557 17.8125 59.8154 17.4365C60.0752 17.0605 60.27 16.6299 60.3999 16.1445C60.5366 15.6523 60.605 15.1294 60.605 14.5757V14.3398C60.605 13.793 60.5366 13.2769 60.3999 12.7915C60.27 12.2993 60.0718 11.8652 59.8052 11.4893C59.5454 11.1064 59.2173 10.8057 58.8208 10.5869C58.4312 10.3682 57.9731 10.2588 57.4468 10.2588C56.9272 10.2588 56.4692 10.3682 56.0728 10.5869C55.6831 10.8057 55.355 11.1064 55.0884 11.4893C54.8286 11.8652 54.6338 12.2993 54.5039 12.7915C54.374 13.2769 54.3091 13.793 54.3091 14.3398ZM66.9521 4.25V20H65.0449V4.25H66.9521ZM72.0586 8.90527V20H70.1514V8.90527H72.0586ZM70.0078 5.9624C70.0078 5.65479 70.1001 5.39502 70.2847 5.18311C70.4761 4.97119 70.7563 4.86523 71.1255 4.86523C71.4878 4.86523 71.7646 4.97119 71.9561 5.18311C72.1543 5.39502 72.2534 5.65479 72.2534 5.9624C72.2534 6.25635 72.1543 6.50928 71.9561 6.72119C71.7646 6.92627 71.4878 7.02881 71.1255 7.02881C70.7563 7.02881 70.4761 6.92627 70.2847 6.72119C70.1001 6.50928 70.0078 6.25635 70.0078 5.9624ZM82.0972 17.8467V4.25H84.0044V20H82.2612L82.0972 17.8467ZM74.6323 14.5757V14.3604C74.6323 13.5127 74.7349 12.7437 74.9399 12.0532C75.1519 11.356 75.4492 10.7578 75.832 10.2588C76.2217 9.75977 76.6831 9.37695 77.2163 9.11035C77.7563 8.83691 78.3579 8.7002 79.021 8.7002C79.7183 8.7002 80.3267 8.82324 80.8462 9.06934C81.3726 9.30859 81.8169 9.66064 82.1792 10.1255C82.5483 10.5835 82.8389 11.1372 83.0508 11.7866C83.2627 12.436 83.4097 13.1709 83.4917 13.9912V14.9346C83.4165 15.748 83.2695 16.4795 83.0508 17.1289C82.8389 17.7783 82.5483 18.332 82.1792 18.79C81.8169 19.248 81.3726 19.6001 80.8462 19.8462C80.3198 20.0854 79.7046 20.2051 79.0005 20.2051C78.3511 20.2051 77.7563 20.0649 77.2163 19.7847C76.6831 19.5044 76.2217 19.1113 75.832 18.6055C75.4492 18.0996 75.1519 17.5049 74.9399 16.8213C74.7349 16.1309 74.6323 15.3823 74.6323 14.5757ZM76.5396 14.3604V14.5757C76.5396 15.1294 76.5942 15.6489 76.7036 16.1343C76.8198 16.6196 76.9976 17.0469 77.2368 17.416C77.4761 17.7852 77.7803 18.0757 78.1494 18.2876C78.5186 18.4927 78.9595 18.5952 79.4722 18.5952C80.1011 18.5952 80.6172 18.4619 81.0205 18.1953C81.4307 17.9287 81.7588 17.5767 82.0049 17.1392C82.251 16.7017 82.4424 16.2266 82.5791 15.7139V13.2427C82.4971 12.8667 82.3774 12.5044 82.2202 12.1558C82.0698 11.8003 81.8716 11.4858 81.6255 11.2124C81.3862 10.9321 81.0889 10.71 80.7334 10.5459C80.3848 10.3818 79.9712 10.2998 79.4927 10.2998C78.9731 10.2998 78.5254 10.4092 78.1494 10.6279C77.7803 10.8398 77.4761 11.1338 77.2368 11.5098C76.9976 11.8789 76.8198 12.3096 76.7036 12.8018C76.5942 13.2871 76.5396 13.8066 76.5396 14.3604ZM89.0186 8.90527V20H87.1113V8.90527H89.0186ZM86.9678 5.9624C86.9678 5.65479 87.0601 5.39502 87.2446 5.18311C87.436 4.97119 87.7163 4.86523 88.0854 4.86523C88.4478 4.86523 88.7246 4.97119 88.916 5.18311C89.1143 5.39502 89.2134 5.65479 89.2134 5.9624C89.2134 6.25635 89.1143 6.50928 88.916 6.72119C88.7246 6.92627 88.4478 7.02881 88.0854 7.02881C87.7163 7.02881 87.436 6.92627 87.2446 6.72119C87.0601 6.50928 86.9678 6.25635 86.9678 5.9624ZM96.709 8.90527V10.3613H90.7104V8.90527H96.709ZM92.7407 6.2085H94.6377V17.252C94.6377 17.6279 94.6958 17.9116 94.812 18.103C94.9282 18.2944 95.0786 18.4209 95.2632 18.4824C95.4478 18.5439 95.646 18.5747 95.8579 18.5747C96.0151 18.5747 96.1792 18.561 96.3501 18.5337C96.5278 18.4995 96.6611 18.4722 96.75 18.4517L96.7603 20C96.6099 20.0479 96.4116 20.0923 96.1655 20.1333C95.9263 20.1812 95.6357 20.2051 95.2939 20.2051C94.8291 20.2051 94.4019 20.1128 94.0122 19.9282C93.6226 19.7437 93.3115 19.436 93.0791 19.0054C92.8535 18.5679 92.7407 17.98 92.7407 17.2417V6.2085ZM102.051 18.8516L105.138 8.90527H107.168L102.718 21.7124C102.615 21.9858 102.479 22.2798 102.308 22.5942C102.144 22.9155 101.932 23.2197 101.672 23.5068C101.412 23.7939 101.098 24.0264 100.729 24.2041C100.366 24.3887 99.9321 24.481 99.4263 24.481C99.2759 24.481 99.0845 24.4604 98.8521 24.4194C98.6196 24.3784 98.4556 24.3442 98.3599 24.3169L98.3496 22.7788C98.4043 22.7856 98.4897 22.7925 98.606 22.7993C98.729 22.813 98.8145 22.8198 98.8623 22.8198C99.293 22.8198 99.6587 22.7617 99.9595 22.6455C100.26 22.5361 100.513 22.3481 100.718 22.0815C100.93 21.8218 101.111 21.4629 101.262 21.0049L102.051 18.8516ZM99.7852 8.90527L102.667 17.5186L103.159 19.5181L101.795 20.2153L97.7139 8.90527H99.7852ZM46.2393 39.145H42.2505V37.5352H46.2393C47.0117 37.5352 47.6372 37.4121 48.1157 37.166C48.5942 36.9199 48.9429 36.5781 49.1616 36.1406C49.3872 35.7031 49.5 35.2041 49.5 34.6436C49.5 34.1309 49.3872 33.6489 49.1616 33.1978C48.9429 32.7466 48.5942 32.3843 48.1157 32.1108C47.6372 31.8306 47.0117 31.6904 46.2393 31.6904H42.7119V45H40.7329V30.0703H46.2393C47.3672 30.0703 48.3208 30.2651 49.1001 30.6548C49.8794 31.0444 50.4707 31.5845 50.874 32.2749C51.2773 32.9585 51.479 33.7412 51.479 34.623C51.479 35.5801 51.2773 36.397 50.874 37.0737C50.4707 37.7505 49.8794 38.2666 49.1001 38.6221C48.3208 38.9707 47.3672 39.145 46.2393 39.145ZM55.5908 35.6484V45H53.6938V33.9053H55.5396L55.5908 35.6484ZM59.0566 33.8438L59.0464 35.6074C58.8892 35.5732 58.7388 35.5527 58.5952 35.5459C58.4585 35.5322 58.3013 35.5254 58.1235 35.5254C57.686 35.5254 57.2998 35.5938 56.9648 35.7305C56.6299 35.8672 56.3462 36.0586 56.1138 36.3047C55.8813 36.5508 55.6968 36.8447 55.5601 37.1865C55.4302 37.5215 55.3447 37.8906 55.3037 38.2939L54.7705 38.6016C54.7705 37.9316 54.8354 37.3027 54.9653 36.7148C55.1021 36.127 55.3105 35.6074 55.5908 35.1562C55.8711 34.6982 56.2266 34.3428 56.6572 34.0898C57.0947 33.8301 57.6143 33.7002 58.2158 33.7002C58.3525 33.7002 58.5098 33.7173 58.6875 33.7515C58.8652 33.7788 58.9883 33.8096 59.0566 33.8438ZM60.1025 39.5757V39.3398C60.1025 38.54 60.2188 37.7983 60.4512 37.1147C60.6836 36.4243 61.0186 35.8262 61.4561 35.3203C61.8936 34.8076 62.4233 34.4111 63.0454 34.1309C63.6675 33.8438 64.3647 33.7002 65.1372 33.7002C65.9165 33.7002 66.6172 33.8438 67.2393 34.1309C67.8682 34.4111 68.4014 34.8076 68.8389 35.3203C69.2832 35.8262 69.6216 36.4243 69.854 37.1147C70.0864 37.7983 70.2026 38.54 70.2026 39.3398V39.5757C70.2026 40.3755 70.0864 41.1172 69.854 41.8008C69.6216 42.4844 69.2832 43.0825 68.8389 43.5952C68.4014 44.1011 67.8716 44.4976 67.2495 44.7847C66.6343 45.0649 65.937 45.2051 65.1577 45.2051C64.3784 45.2051 63.6777 45.0649 63.0557 44.7847C62.4336 44.4976 61.9004 44.1011 61.4561 43.5952C61.0186 43.0825 60.6836 42.4844 60.4512 41.8008C60.2188 41.1172 60.1025 40.3755 60.1025 39.5757ZM61.9995 39.3398V39.5757C61.9995 40.1294 62.0645 40.6523 62.1943 41.1445C62.3242 41.6299 62.519 42.0605 62.7788 42.4365C63.0454 42.8125 63.377 43.1099 63.7734 43.3286C64.1699 43.5405 64.6313 43.6465 65.1577 43.6465C65.6772 43.6465 66.1318 43.5405 66.5215 43.3286C66.918 43.1099 67.2461 42.8125 67.5059 42.4365C67.7656 42.0605 67.9604 41.6299 68.0903 41.1445C68.2271 40.6523 68.2954 40.1294 68.2954 39.5757V39.3398C68.2954 38.793 68.2271 38.2769 68.0903 37.7915C67.9604 37.2993 67.7622 36.8652 67.4956 36.4893C67.2358 36.1064 66.9077 35.8057 66.5112 35.5869C66.1216 35.3682 65.6636 35.2588 65.1372 35.2588C64.6177 35.2588 64.1597 35.3682 63.7632 35.5869C63.3735 35.8057 63.0454 36.1064 62.7788 36.4893C62.519 36.8652 62.3242 37.2993 62.1943 37.7915C62.0645 38.2769 61.9995 38.793 61.9995 39.3398ZM72.6328 33.9053H74.54V46.3228C74.54 46.9995 74.4307 47.5737 74.2119 48.0454C74 48.5171 73.6787 48.8726 73.248 49.1118C72.8242 49.3579 72.2876 49.481 71.6382 49.481C71.4673 49.481 71.269 49.4639 71.0435 49.4297C70.811 49.3955 70.6162 49.3545 70.459 49.3066L70.4692 47.7788C70.5991 47.8062 70.7461 47.8267 70.9102 47.8403C71.0742 47.8608 71.2178 47.8711 71.3408 47.8711C71.6211 47.8711 71.8569 47.8198 72.0483 47.7173C72.2397 47.6147 72.3833 47.4507 72.479 47.2251C72.5815 46.9995 72.6328 46.6987 72.6328 46.3228V33.9053ZM72.438 30.9624C72.438 30.6548 72.5337 30.395 72.7251 30.1831C72.9165 29.9712 73.1934 29.8652 73.5557 29.8652C73.9248 29.8652 74.2051 29.9712 74.3965 30.1831C74.5879 30.395 74.6836 30.6548 74.6836 30.9624C74.6836 31.2563 74.5879 31.5093 74.3965 31.7212C74.2051 31.9263 73.9248 32.0288 73.5557 32.0288C73.1934 32.0288 72.9165 31.9263 72.7251 31.7212C72.5337 31.5093 72.438 31.2563 72.438 30.9624ZM82.21 45.2051C81.4375 45.2051 80.7368 45.0752 80.1079 44.8154C79.4858 44.5488 78.9492 44.1763 78.498 43.6978C78.0537 43.2192 77.7119 42.6519 77.4727 41.9956C77.2334 41.3394 77.1138 40.6216 77.1138 39.8423V39.4116C77.1138 38.5093 77.2471 37.7061 77.5137 37.002C77.7803 36.291 78.1426 35.6895 78.6006 35.1973C79.0586 34.7051 79.5781 34.3325 80.1592 34.0796C80.7402 33.8267 81.3418 33.7002 81.9639 33.7002C82.7568 33.7002 83.4404 33.8369 84.0146 34.1104C84.5957 34.3838 85.0708 34.7666 85.4399 35.2588C85.8091 35.7441 86.0825 36.3184 86.2603 36.9814C86.438 37.6377 86.5269 38.3555 86.5269 39.1348V39.9858H78.2417V38.4375H84.6299V38.2939C84.6025 37.8018 84.5 37.3232 84.3223 36.8584C84.1514 36.3936 83.8779 36.0107 83.502 35.71C83.126 35.4092 82.6133 35.2588 81.9639 35.2588C81.5332 35.2588 81.1367 35.3511 80.7744 35.5356C80.4121 35.7134 80.1011 35.98 79.8413 36.3354C79.5815 36.6909 79.3799 37.125 79.2363 37.6377C79.0928 38.1504 79.021 38.7417 79.021 39.4116V39.8423C79.021 40.3687 79.0928 40.8643 79.2363 41.3291C79.3867 41.7871 79.6021 42.1904 79.8823 42.5391C80.1694 42.8877 80.5146 43.1611 80.918 43.3594C81.3281 43.5576 81.793 43.6567 82.3125 43.6567C82.9824 43.6567 83.5498 43.52 84.0146 43.2466C84.4795 42.9731 84.8862 42.6074 85.2349 42.1494L86.3833 43.062C86.144 43.4243 85.8398 43.7695 85.4707 44.0977C85.1016 44.4258 84.647 44.6924 84.1069 44.8975C83.5737 45.1025 82.9414 45.2051 82.21 45.2051ZM93.1816 43.6465C93.6328 43.6465 94.0498 43.5542 94.4326 43.3696C94.8154 43.1851 95.1299 42.9321 95.376 42.6108C95.6221 42.2827 95.7622 41.9102 95.7964 41.4932H97.6011C97.5669 42.1494 97.3447 42.7612 96.9346 43.3286C96.5312 43.8892 96.0015 44.3438 95.3452 44.6924C94.689 45.0342 93.9678 45.2051 93.1816 45.2051C92.3477 45.2051 91.6196 45.0581 90.9976 44.7642C90.3823 44.4702 89.8696 44.0669 89.4595 43.5542C89.0562 43.0415 88.752 42.4536 88.5469 41.7905C88.3486 41.1206 88.2495 40.4131 88.2495 39.668V39.2373C88.2495 38.4922 88.3486 37.7881 88.5469 37.125C88.752 36.4551 89.0562 35.8638 89.4595 35.3511C89.8696 34.8384 90.3823 34.4351 90.9976 34.1411C91.6196 33.8472 92.3477 33.7002 93.1816 33.7002C94.0498 33.7002 94.8086 33.8779 95.458 34.2334C96.1074 34.582 96.6167 35.0605 96.9858 35.6689C97.3618 36.2705 97.5669 36.9541 97.6011 37.7197H95.7964C95.7622 37.2617 95.6323 36.8481 95.4067 36.479C95.188 36.1099 94.8872 35.8159 94.5044 35.5972C94.1284 35.3716 93.6875 35.2588 93.1816 35.2588C92.6006 35.2588 92.1118 35.375 91.7153 35.6074C91.3257 35.833 91.0146 36.1406 90.7822 36.5303C90.5566 36.9131 90.3926 37.3403 90.29 37.812C90.1943 38.2769 90.1465 38.752 90.1465 39.2373V39.668C90.1465 40.1533 90.1943 40.6318 90.29 41.1035C90.3857 41.5752 90.5464 42.0024 90.772 42.3853C91.0044 42.7681 91.3154 43.0757 91.7051 43.3081C92.1016 43.5337 92.5938 43.6465 93.1816 43.6465ZM104.379 33.9053V35.3613H98.3804V33.9053H104.379ZM100.411 31.2085H102.308V42.252C102.308 42.6279 102.366 42.9116 102.482 43.103C102.598 43.2944 102.749 43.4209 102.933 43.4824C103.118 43.5439 103.316 43.5747 103.528 43.5747C103.685 43.5747 103.849 43.561 104.02 43.5337C104.198 43.4995 104.331 43.4722 104.42 43.4517L104.43 45C104.28 45.0479 104.082 45.0923 103.835 45.1333C103.596 45.1812 103.306 45.2051 102.964 45.2051C102.499 45.2051 102.072 45.1128 101.682 44.9282C101.292 44.7437 100.981 44.436 100.749 44.0054C100.523 43.5679 100.411 42.98 100.411 42.2417V31.2085ZM113.064 42.0571C113.064 41.7837 113.002 41.5308 112.879 41.2983C112.763 41.0591 112.521 40.8438 112.151 40.6523C111.789 40.4541 111.242 40.2832 110.511 40.1396C109.896 40.0098 109.338 39.856 108.839 39.6782C108.347 39.5005 107.927 39.2852 107.578 39.0322C107.236 38.7793 106.973 38.4819 106.789 38.1401C106.604 37.7983 106.512 37.3984 106.512 36.9404C106.512 36.5029 106.607 36.0894 106.799 35.6997C106.997 35.3101 107.274 34.9648 107.629 34.6641C107.992 34.3633 108.426 34.1274 108.932 33.9565C109.438 33.7856 110.001 33.7002 110.624 33.7002C111.512 33.7002 112.271 33.8574 112.9 34.1719C113.529 34.4863 114.011 34.9067 114.346 35.4331C114.681 35.9526 114.848 36.5303 114.848 37.166H112.951C112.951 36.8584 112.859 36.561 112.674 36.2739C112.497 35.98 112.233 35.7373 111.885 35.5459C111.543 35.3545 111.123 35.2588 110.624 35.2588C110.097 35.2588 109.67 35.3408 109.342 35.5049C109.021 35.6621 108.785 35.8638 108.634 36.1099C108.491 36.356 108.419 36.6157 108.419 36.8892C108.419 37.0942 108.453 37.2788 108.521 37.4429C108.597 37.6001 108.727 37.7471 108.911 37.8838C109.096 38.0137 109.355 38.1367 109.69 38.2529C110.025 38.3691 110.453 38.4854 110.972 38.6016C111.881 38.8066 112.63 39.0527 113.218 39.3398C113.806 39.627 114.243 39.979 114.53 40.396C114.817 40.813 114.961 41.3188 114.961 41.9136C114.961 42.3989 114.858 42.8433 114.653 43.2466C114.455 43.6499 114.165 43.9985 113.782 44.2925C113.406 44.5796 112.955 44.8052 112.428 44.9692C111.909 45.1265 111.324 45.2051 110.675 45.2051C109.697 45.2051 108.87 45.0308 108.193 44.6821C107.517 44.3335 107.004 43.8823 106.655 43.3286C106.307 42.7749 106.132 42.1904 106.132 41.5752H108.04C108.067 42.0947 108.217 42.5083 108.491 42.8159C108.764 43.1167 109.099 43.332 109.496 43.4619C109.892 43.585 110.285 43.6465 110.675 43.6465C111.194 43.6465 111.628 43.5781 111.977 43.4414C112.333 43.3047 112.603 43.1167 112.787 42.8774C112.972 42.6382 113.064 42.3647 113.064 42.0571Z" fill="#B5BAC3"/>
<g clip-path="url(#clip0_4_358)">
<path opacity="0.45" d="M20.1987 4.00099L13.4629 16.0017H0L6.73067 4.00099H20.1987Z" fill="#B5BAC3"/>
<path opacity="0.6" d="M13.4629 16.0016H26.9294L20.1993 4.00089H6.73071L13.4629 16.0016Z" fill="#B5BAC3"/>
<path opacity="0.8" d="M6.73067 27.9972L13.4629 16.0017L6.73067 4.00099L0 16.0017L6.73067 27.9972Z" fill="#B5BAC3"/>
<path opacity="0.45" d="M6.79663 45.9991L13.5325 33.9984H27L20.2642 45.9991H6.79663Z" fill="#B5BAC3"/>
<path opacity="0.6" d="M13.5324 33.9984H0.065918L6.79659 45.9991H20.2641L13.5324 33.9984Z" fill="#B5BAC3"/>
<path opacity="0.8" d="M20.2642 22.0019L13.5325 33.9984L20.2642 45.9991L27 33.9984L20.2642 22.0019Z" fill="#B5BAC3"/>
</g>
<defs>
<clipPath id="clip0_4_358">
<rect width="27" height="42" fill="white" transform="translate(0 4)"/>
</clipPath>
</defs>
</svg>
